<?xml version="1.0" encoding="utf-8"?>
<!-- Generator: Adobe Illustrator 26.4.1, SVG Export Plug-In . SVG Version: 6.00 Build 0)  -->
<svg version="1.1" id="Layer_1" xmlns="http://www.w3.org/2000/svg" xmlns:xlink="http://www.w3.org/1999/xlink" x="0px" y="0px"
	 viewBox="0 0 300 220" style="enable-background:new 0 0 300 220;" xml:space="preserve">
<style type="text/css">
	.st0{fill:#07162D;}
	.st1{fill:#7B8491;}
</style>
<g>
	<path class="st0" d="M232.86,33.38c9.22-2.12,18.32-2.38,26.99,1.75c10.1,4.82,14.01,13.66,14.74,24.25
		c0.62,8.95-1.41,17.5-3.97,25.99c-0.46,1.51-0.82,3.31-0.44,4.78c4.01,15.42,0.13,29.1-9.21,41.46
		c-9.69,12.82-22.6,21.23-37.63,26.62c-1.97,0.71-3.94,1.84-5.49,3.24c-17.05,15.48-35.45,28.91-56.98,37.53
		c-11.47,4.59-23.23,7.82-35.83,6.06c-13.56-1.89-22.47-10.96-23.69-24.57c-0.32-3.55,0.08-7.15-0.12-10.72
		c-0.37-6.34,2.61-9.93,8.85-11.2c0.2,0.94,0.38,1.91,0.62,2.87c2.59,10.4,9.93,16.61,20.62,17.54c12.96,1.13,24.87-2.65,36.06-8.49
		c36.86-19.23,64.7-47.33,82.11-85.33c3.58-7.82,5.85-16.08,6.02-24.77C255.81,44.4,248.45,35.78,232.86,33.38z"/>
	<path class="st1" d="M106.09,57.87c10.82,0,21.14,0,31.75,0c-1.75,9.89-3.45,19.54-5.17,29.17c-1.91,10.67-3.42,21.44-5.86,31.99
		c-5.13,22.21-20.27,34.49-41.64,39.57c-8.01,1.9-16.36,2.94-24.6,3.22c-14.67,0.51-29.38,0.14-44.81,0.14
		c2.16-2.36,3.95-4.38,5.81-6.33c5.57-5.81,11.08-11.67,16.84-17.29c1.27-1.24,3.42-2.13,5.21-2.22c8.67-0.4,17.39-0.1,26.04-0.75
		c17.49-1.3,24.38-8.19,27.29-25.69C99.8,92.46,103,75.3,106.09,57.87z"/>
	<path class="st1" d="M171.22,97.18c-2.24,12.98-4.4,25.49-6.65,38.5c13.36,0,26.31,0,39.25,0c0.13,0.3,0.27,0.6,0.4,0.9
		c-3.78,3.29-7.48,6.67-11.37,9.83c-3.46,2.82-7.17,5.34-10.69,8.08c-7.19,5.61-14.97,8.44-24.41,7.69
		c-9.63-0.76-19.36-0.17-29.63-0.17c0.88-5.4,1.64-10.37,2.52-15.32c2.76-15.56,5.52-31.11,8.42-46.64c0.2-1.06,1.44-2.73,2.23-2.75
		C151.11,97.12,160.92,97.18,171.22,97.18z"/>
	<path class="st1" d="M142.01,84.25c8.36-8.92,16.07-17.22,23.91-25.39c0.74-0.77,2.26-1.09,3.42-1.09c16.73-0.06,33.47-0.13,50.2,0
		c9.44,0.07,18.37,2.53,26.96,6.42c2.18,0.99,3.02,1.96,2.3,4.61c-2.67,9.81-6.93,18.86-12.07,27.76
		c-6.41-9.12-15.41-12.32-25.95-12.31C188.2,84.27,165.6,84.25,142.01,84.25z"/>
	<path class="st1" d="M177.53,46.61c6.68-4.74,13.2-9.73,20.09-14.15c13.42-8.62,27.83-15,43.8-17.14
		c9.54-1.28,19.1-1.46,28.37,1.87c10.77,3.86,15.32,13.17,14.31,24.28c-0.26,2.88-0.87,5.74-1.49,9.71
		c-1.14-3.61-1.68-6.27-2.79-8.67c-5.25-11.35-15.05-16.11-26.7-17.97c-19.72-3.14-37.6,2.91-54.87,11.44
		c-6.92,3.42-13.56,7.41-20.33,11.14C177.79,46.95,177.66,46.78,177.53,46.61z"/>
</g>
</svg>
